<svg width="137" height="43" viewBox="0 0 137 43" fill="none" xmlns="http://www.w3.org/2000/svg">
<path d="M0.93 42V0.819998H6.15V42H0.93ZM21.2164 10.448V42H15.9964V0.819998H20.4044L45.5764 33.01V0.877997H50.7964V42H46.0404L21.2164 10.448ZM93.7472 0.819998V42H88.5272V23.266H65.8492V42H60.6292V0.819998H65.8492V18.626H88.5272V0.819998H93.7472ZM100.951 21.12C100.951 18.6067 101.377 16.1513 102.227 13.754C103.117 11.318 104.393 9.114 106.055 7.142C107.757 5.13133 109.825 3.546 112.261 2.386C114.697 1.18733 117.462 0.587997 120.555 0.587997C124.229 0.587997 127.38 1.43866 130.009 3.14C132.639 4.80267 134.591 6.94867 135.867 9.578L131.749 12.246C130.937 10.506 129.893 9.13333 128.617 8.128C127.38 7.084 126.027 6.34933 124.557 5.924C123.127 5.49867 121.715 5.286 120.323 5.286C118.042 5.286 116.012 5.75 114.233 6.678C112.493 7.606 111.024 8.84333 109.825 10.39C108.627 11.9367 107.718 13.6767 107.099 15.61C106.519 17.5047 106.229 19.4187 106.229 21.352C106.229 23.4787 106.577 25.528 107.273 27.5C108.008 29.472 109.013 31.212 110.289 32.72C111.565 34.228 113.073 35.4267 114.813 36.316C116.553 37.2053 118.448 37.65 120.497 37.65C121.928 37.65 123.397 37.3987 124.905 36.896C126.413 36.3933 127.825 35.62 129.139 34.576C130.454 33.4933 131.498 32.1013 132.271 30.4L136.621 32.778C135.771 34.8273 134.456 36.5673 132.677 37.998C130.899 39.4287 128.907 40.5113 126.703 41.246C124.538 41.9807 122.392 42.348 120.265 42.348C117.443 42.348 114.852 41.7487 112.493 40.55C110.135 39.3127 108.085 37.6887 106.345 35.678C104.644 33.6287 103.31 31.3473 102.343 28.834C101.415 26.282 100.951 23.7107 100.951 21.12Z" fill="#122947"/>
</svg>
